<?xml version="1.0" encoding="iso-8859-1"?>
<!-- Uploaded to: SVG Repo, www.svgrepo.com, Generator: SVG Repo Mixer Tools -->
<svg height="800px" width="800px" version="1.1" id="Layer_1" xmlns="http://www.w3.org/2000/svg" xmlns:xlink="http://www.w3.org/1999/xlink" 
	 viewBox="0 0 511.999 511.999" xml:space="preserve">
<path style="fill:#FF8095;" d="M147.789,291.189v103.123h29.622c25.904,0,46.904-21,46.904-46.904v-56.219L147.789,291.189
	L147.789,291.189z"/>
<path style="fill:#CCF7FF;" d="M96.155,291.189v123.756c0,22.179,17.98,40.16,40.16,40.16l0,0c22.179,0,40.16-17.98,40.16-40.16
	V291.189H96.155z"/>
<path style="opacity:0.2;fill:#333333;enable-background:new    ;" d="M147.789,291.189H96.155v56.372
	c45.473,2.275,87.836,7.988,125.58,15.183c1.663-4.806,2.579-9.963,2.579-15.336v-56.219h-47.84L147.789,291.189L147.789,291.189z"
	/>
<path style="fill:#CCF7FF;" d="M94.849,126.166C41.758,128.676,0,172.454,0,225.602l0,0c0,53.15,41.758,96.926,94.849,99.436
	c180.191,8.519,311.6,69.273,311.6,69.273V56.894C406.449,56.894,275.039,117.647,94.849,126.166z"/>
<path style="opacity:0.1;fill:#333333;enable-background:new    ;" d="M110.545,309.342c-53.09-2.509-94.849-46.287-94.849-99.436
	l0,0c0-23.442,8.131-45.052,21.767-62.111C14.583,166.076,0,194.2,0,225.602l0,0c0,53.15,41.758,96.926,94.849,99.436
	c180.191,8.519,311.6,69.273,311.6,69.273v-22.318C366.519,356.008,253.991,316.124,110.545,309.342z"/>
<ellipse style="fill:#FF8095;" cx="406.451" cy="225.604" rx="105.548" ry="168.704"/>
<path style="fill:#526366;" d="M406.449,343.859c-21.935,0-55.099-47.165-55.099-118.257c0-71.091,33.163-118.257,55.099-118.257
	c21.936,0,55.098,47.165,55.098,118.257S428.384,343.859,406.449,343.859z"/>
<path style="opacity:0.15;fill:#333333;enable-background:new    ;" d="M406.449,107.347c-5.009,0-10.605,2.468-16.257,7.111
	c19.096,15.688,38.841,56.29,38.841,111.146s-19.744,95.459-38.841,111.146c5.652,4.643,11.248,7.111,16.257,7.111
	c21.935,0,55.098-47.165,55.098-118.257S428.384,107.347,406.449,107.347z"/>
<path style="fill:#85A1A6;" d="M351.35,225.602c0,15.535,1.584,29.928,4.287,42.936h50.811v-85.87h-50.811
	C352.933,195.675,351.35,210.067,351.35,225.602z"/>
<ellipse style="fill:#CCF7FF;" cx="406.451" cy="225.604" rx="20.814" ry="42.941"/>
<g>
	<path style="fill:#526366;" d="M119.525,234.012H43.726c-4.645,0-8.409-3.765-8.409-8.409s3.764-8.409,8.409-8.409h75.798
		c4.645,0,8.409,3.765,8.409,8.409S124.169,234.012,119.525,234.012z"/>
	<path style="fill:#526366;" d="M126.894,206.188H51.096c-4.645,0-8.409-3.765-8.409-8.409s3.764-8.409,8.409-8.409h75.798
		c4.645,0,8.409,3.765,8.409,8.409S131.539,206.188,126.894,206.188z"/>
	<path style="fill:#526366;" d="M126.894,261.836H51.096c-4.645,0-8.409-3.765-8.409-8.409c0-4.644,3.764-8.409,8.409-8.409h75.798
		c4.645,0,8.409,3.765,8.409,8.409C135.302,258.071,131.539,261.836,126.894,261.836z"/>
</g>
</svg>