<?xml version="1.0" encoding="iso-8859-1"?>
<!-- Uploaded to: SVG Repo, www.svgrepo.com, Generator: SVG Repo Mixer Tools -->
<!DOCTYPE svg PUBLIC "-//W3C//DTD SVG 1.1//EN" "http://www.w3.org/Graphics/SVG/1.1/DTD/svg11.dtd">
<svg fill="#000000" version="1.1" id="Capa_1" xmlns="http://www.w3.org/2000/svg" xmlns:xlink="http://www.w3.org/1999/xlink" 
	 width="800px" height="800px" viewBox="0 0 70.074 70.074"
	 xml:space="preserve">
<g>
	<g>
		<path d="M12.767,39.096h-2.624c-0.35,0.79-0.56,1.656-0.609,2.564h2.929C12.488,40.789,12.592,39.936,12.767,39.096z"/>
		<path d="M13.249,41.66h3.205v-2.564h-2.884C13.386,39.927,13.284,40.789,13.249,41.66z"/>
		<path d="M18.532,34.926c-0.416-0.096-0.851-0.157-1.296-0.183v3.568h2.748C19.656,37.111,19.174,35.972,18.532,34.926z"/>
		<path d="M16.453,38.312v-3.57c-0.383,0.022-0.762,0.067-1.124,0.143c-0.682,1.052-1.21,2.207-1.56,3.427H16.453L16.453,38.312z"/>
		<path d="M13.522,45.013h2.931v-2.568h-3.209C13.26,43.316,13.346,44.179,13.522,45.013z"/>
		<path d="M14.057,48.832c-0.505-0.958-0.89-1.976-1.152-3.034h-2.349C11.361,47.148,12.588,48.225,14.057,48.832z"/>
		<path d="M14.202,35.223c-1.528,0.598-2.812,1.688-3.648,3.089h2.401C13.255,37.226,13.667,36.197,14.202,35.223z"/>
		<path d="M12.452,42.444H9.535c0.049,0.913,0.257,1.779,0.609,2.568h2.579C12.557,44.179,12.471,43.316,12.452,42.444z"/>
		<path d="M15.156,49.188c0.423,0.091,0.851,0.155,1.297,0.178v-3.567h-2.744C14.038,47.002,14.521,48.134,15.156,49.188z"/>
		<path d="M23.141,38.312c-0.815-1.351-2.037-2.428-3.501-3.033c0.5,0.958,0.883,1.974,1.151,3.033H23.141z"/>
		<path d="M21.242,41.66h2.92c-0.049-0.908-0.262-1.774-0.61-2.564h-2.579C21.134,39.936,21.228,40.789,21.242,41.66z"/>
		<path d="M20.929,45.013h2.623c0.346-0.789,0.558-1.655,0.61-2.568H21.23C21.205,43.316,21.104,44.179,20.929,45.013z"/>
		<path d="M70.074,44.985H55.813l-8.142-14.053H31.779h-10.89v-4.649l1.402-1.289c3.557,2.387,8.416,2.006,11.545-1.145
			l-12.954-12.87c-3.335,3.359-3.478,8.646-0.521,12.223l-3.511,3.083v4.649H2.434v19.996H0v5.615h2.432v4.713h8.537
			c1.054,2.746,3.702,4.711,6.816,4.711c3.111,0,5.759-1.965,6.812-4.711h22.357c1.05,2.746,3.695,4.711,6.812,4.711
			c3.111,0,5.758-1.965,6.815-4.711h9.494V44.985z M16.848,33.933c0.75,0,1.482,0.113,2.168,0.307l0.021-0.013
			c0.007,0,0.007,0.013,0.011,0.02c3.408,0.965,5.922,4.087,5.922,7.803c0,4.476-3.649,8.123-8.122,8.123
			c-0.756,0-1.482-0.114-2.174-0.311l-0.021,0.014c0,0,0-0.014-0.007-0.018c-3.41-0.963-5.919-4.088-5.919-7.809
			C8.726,37.577,12.37,33.933,16.848,33.933z M17.784,63.152c-2.485,0-4.51-2.021-4.51-4.503c0-2.484,2.022-4.503,4.51-4.503
			c2.483,0,4.506,2.019,4.506,4.503C22.291,61.131,20.271,63.152,17.784,63.152z M35.227,33.933h9.423l6.344,10.948H35.227V33.933z
			 M53.765,63.152c-2.479,0-4.505-2.021-4.505-4.503c0-2.484,2.021-4.503,4.505-4.503c2.488,0,4.512,2.019,4.512,4.503
			C58.276,61.131,56.253,63.152,53.765,63.152z"/>
		<path d="M19.919,45.798h-2.684v3.565c0.385-0.019,0.764-0.066,1.13-0.142C19.045,48.17,19.569,47.021,19.919,45.798z"/>
		<path d="M20.44,42.444h-3.205v2.568h2.888C20.31,44.183,20.407,43.32,20.44,42.444z"/>
		<path d="M19.493,48.887c1.529-0.598,2.814-1.688,3.648-3.089h-2.409C20.44,46.879,20.03,47.919,19.493,48.887z"/>
		<path d="M20.172,39.096h-2.937v2.564h3.216C20.434,40.789,20.342,39.936,20.172,39.096z"/>
		<path d="M26.902,14.987l2.387,2.445c1.13-1.123,1.504-2.576,0.841-3.256C29.478,13.502,28.027,13.869,26.902,14.987z"/>
		<path d="M23.342,8.566c1.642-1.645,3.83-2.55,6.157-2.55c2.325,0,4.511,0.906,6.156,2.55c3.393,3.394,3.393,8.916,0,12.31
			c-0.375,0.374-0.375,0.979,0,1.353c0.187,0.188,0.432,0.281,0.675,0.281c0.245,0,0.493-0.093,0.677-0.281
			c4.136-4.139,4.136-10.874,0-15.013c-2.004-2.004-4.672-3.111-7.507-3.111c-2.84,0-5.503,1.105-7.509,3.111
			c-0.372,0.374-0.372,0.979,0,1.353C22.363,8.945,22.968,8.945,23.342,8.566z"/>
		<path d="M32.565,19.148c0.187,0.186,0.432,0.28,0.675,0.28c0.245,0,0.49-0.094,0.677-0.28c2.437-2.439,2.437-6.405,0-8.843
			c-2.44-2.438-6.407-2.434-8.843,0c-0.371,0.374-0.371,0.976,0,1.353c0.374,0.373,0.979,0.373,1.353,0
			c1.691-1.691,4.445-1.694,6.138,0c1.696,1.692,1.696,4.447,0,6.141C32.192,18.166,32.192,18.774,32.565,19.148z"/>
	</g>
</g>
</svg>