<svg xmlns="http://www.w3.org/2000/svg" width="1549" height="352"><path fill="#163300" fill-rule="evenodd" d="M862.2 5.3h95.4l-48 342h-95.4zm-29.5 0L708 347.3h-75.5L599.2 131l-94.8 216.3h-76.7l-32.2-342H488l10.5 196.4L582.8 5.3h66.7l28.1 197L742 5.3zm710.1 198.8h-226.5c1.2 44.4 27.8 73.6 67 73.6 29.6 0 53-15.8 71.1-45.9l76.5 34.8c-26.3 51.7-81.7 85.4-149.9 85.4-93 0-154.8-62.6-154.8-163.1 0-110.6 72.6-188.9 175-188.9 90.1 0 146.9 60.8 146.9 155.5 0 15.8-1.8 31.6-5.3 48.6m-84.8-65.5c0-39.8-22.3-64.9-58-64.9-36.8 0-67.3 26.3-75.5 64.9zM38.1 5.3h322.1l-124.7 342h-70.6L268.1 63.5H134.9l29.6 50.9-.1 1.4-45.5 52.6h74.5L173.8 222H0l97.3-113.7zm1034.8 95.9c0 14.3 9.9 21.4 39.2 34.5l21.1 9.9c49.4 22.2 69 50.6 69 94.7 0 64.9-49.9 111.7-131.1 111.7-47.9 0-84.2-11.4-112.5-33l13.8-98.3c24.8 35.7 57.9 56.6 98.7 56.5 24.8 0 41-10.7 41-27.5 0-16.3-9.7-23.8-45.7-39.2l-19.3-8.8c-40.3-17.4-64.9-44.3-64.9-88.3C982.2 50 1030.2 0 1115.6 0c43 0 75.5 10.1 99.5 26.3l-13.5 96.4c-25.8-30.9-55.3-49-88.9-49-26.2 0-39.8 12-39.8 27.5"/></svg>